<svg width="34" height="31" viewBox="0 0 34 31" fill="none" xmlns="http://www.w3.org/2000/svg">
<title>Comment Icon</title>
<path d="M16.515 0C7.45313 0 0 6.2043 0 13.9563C0 18.4543 2.565 22.4219 6.435 24.9594C6.42938 25.1098 6.435 25.3422 6.2325 26.075C5.98219 26.9801 5.48719 28.2625 4.455 29.6844L3.7125 30.6906L4.995 30.7125C9.44156 30.7316 12.0178 27.8906 12.42 27.4312C13.7334 27.7156 15.1003 27.9125 16.515 27.9125C25.5741 27.9125 33.03 21.7082 33.03 13.9563C33.03 6.2043 25.5741 0 16.515 0ZM16.515 1.3125C24.9497 1.3125 31.68 7.01914 31.68 13.9563C31.68 20.8934 24.9497 26.6 16.515 26.6C15.0722 26.6 13.6716 26.4305 12.3525 26.1187L11.9475 26.0312L11.6775 26.3594C11.6775 26.3594 9.59625 28.6398 6.2775 29.1812C6.87656 28.1367 7.33219 27.166 7.5375 26.425C7.82438 25.3887 7.83 24.675 7.83 24.675V24.325L7.515 24.1281C3.75188 21.8094 1.35 18.1152 1.35 13.9563C1.35 7.01914 8.0775 1.3125 16.515 1.3125Z" fill="black"/>
</svg>